
        <svg width="3153.0612244897957" height="918.3673469387754" xmlns="http://www.w3.org/2000/svg" xmlns:xlink="http://www.w3.org/1999/xlink" version="1.1">
            <rect fill="#2eb692" width="3153.0612244897957" height="918.3673469387754"/>
            <g transform="scale(7.653061224489796) translate(10, 10)">
                <defs id="SvgjsDefs8557"/><g id="main_text" rel="mainfill" name="main_text" feature="main_text" xmlns:name="mainText_mainfill" groupName="main_text" fill="#fff" transform="translate(95.63481488915347, -8.43606313523792) scale(3.117989417989418)"><path d="M1.4 9.56 q0.92 -0.08 1.86 -0.13 t1.9 -0.05 q1 0 2.03 0.2 t1.86 0.75 t1.35 1.53 t0.52 2.54 t-0.52 2.53 t-1.34 1.53 t-1.83 0.76 t-1.99 0.2 q-0.26 0 -0.49 -0.01 t-0.43 -0.03 l0 4.62 q-0.38 0.06 -0.74 0.08 t-0.7 0.02 q-0.32 0 -0.7 -0.02 t-0.78 -0.08 l0 -14.44 z M4.32 16.96 q0.24 0.04 0.45 0.04 l0.51 0 q0.5 0 0.98 -0.13 t0.85 -0.43 t0.59 -0.79 t0.22 -1.21 q0 -0.74 -0.22 -1.25 t-0.59 -0.82 t-0.85 -0.44 t-0.98 -0.13 q-0.22 0 -0.41 0.01 t-0.55 0.05 l0 5.1 z M12.644270833333334 9.38 q0.72 -0.12 1.42 -0.12 q0.68 0 1.4 0.12 l0 10.5 q0 0.62 0.07 1 t0.22 0.59 t0.39 0.29 t0.6 0.08 q0.16 0 0.35 -0.02 t0.37 -0.06 q0.22 0.82 0.22 1.6 l0 0.29 t-0.04 0.29 q-0.32 0.1 -0.77 0.14 t-0.83 0.04 q-1.54 0 -2.47 -0.85 t-0.93 -2.77 l0 -11.12 z M24.028541666666666 19.259999999999998 q-0.24 -0.04 -0.52 -0.07 t-0.5 -0.03 q-0.98 0 -1.55 0.35 t-0.57 1.13 q0 0.52 0.22 0.8 t0.53 0.41 t0.66 0.16 t0.61 0.03 q0.3 0 0.6 -0.05 t0.52 -0.09 l0 -2.64 z M24.028541666666666 17.2 q0 -0.48 -0.16 -0.78 t-0.44 -0.47 t-0.69 -0.23 t-0.91 -0.06 q-1.08 0 -2.3 0.42 q-0.28 -0.52 -0.42 -0.98 t-0.14 -1.1 q0.88 -0.3 1.76 -0.44 t1.64 -0.14 q2.08 0 3.25 1 t1.17 3.2 l0 6 q-0.7 0.22 -1.7 0.42 t-2.26 0.2 q-1.02 0 -1.87 -0.18 t-1.46 -0.6 t-0.94 -1.08 t-0.33 -1.62 t0.41 -1.61 t1.06 -1.04 t1.45 -0.56 t1.6 -0.17 q0.58 0 1.28 0.06 l0 -0.24 z M28.972812499999996 13.66 q0.28 -0.06 0.56 -0.09 t0.62 -0.03 t0.6 0.03 t0.54 0.09 q0.06 0.1 0.11 0.29 t0.09 0.4 t0.07 0.41 t0.05 0.34 q0.2 -0.3 0.48 -0.6 t0.65 -0.54 t0.83 -0.39 t1.02 -0.15 q1.76 0 2.65 0.96 t0.89 3.02 l0 6.6 q-0.72 0.12 -1.42 0.12 t-1.42 -0.12 l0 -5.84 q0 -1.08 -0.33 -1.66 t-1.15 -0.58 q-0.34 0 -0.7 0.1 t-0.65 0.39 t-0.47 0.81 t-0.18 1.36 l0 5.42 q-0.72 0.12 -1.42 0.12 t-1.42 -0.12 l0 -10.34 z  M47.78135416666667 9.62 q0.42 -0.06 0.8 -0.09 t0.84 -0.03 q0.4 0 0.78 0.03 t0.84 0.09 l4.5 14.38 q-0.82 0.12 -1.6 0.12 q-0.76 0 -1.48 -0.12 l-0.8 -2.88 l-4.76 0 l-0.82 2.88 q-0.72 0.12 -1.38 0.12 q-0.74 0 -1.46 -0.12 z M50.98135416666666 18.7 l-1.66 -6.04 l-1.74 6.04 l3.4 0 z  M63.68989583333333 12.1 l-3.58 0 q-0.12 -0.6 -0.12 -1.26 q0 -0.62 0.12 -1.22 l10.1 0 q0.12 0.6 0.12 1.22 q0 0.66 -0.12 1.26 l-3.58 0 l0 11.9 q-0.36 0.04 -0.72 0.07 t-0.7 0.03 t-0.73 -0.02 t-0.79 -0.08 l0 -11.9 z M71.89416666666666 13.66 q0.3 -0.06 0.57 -0.09 t0.59 -0.03 q0.3 0 0.59 0.04 t0.57 0.1 q0.06 0.1 0.11 0.29 t0.09 0.4 t0.07 0.42 l0.05 0.35 q0.44 -0.62 1.08 -1.11 t1.6 -0.49 q0.2 0 0.46 0.02 t0.38 0.06 q0.04 0.2 0.06 0.46 t0.02 0.54 q0 0.34 -0.03 0.74 t-0.11 0.76 q-0.22 -0.04 -0.49 -0.04 l-0.33 0 q-0.34 0 -0.76 0.07 t-0.8 0.37 t-0.63 0.9 t-0.25 1.68 l0 4.92 q-0.36 0.06 -0.72 0.08 t-0.7 0.02 t-0.69 -0.02 t-0.73 -0.08 l0 -10.36 z M80.15843749999999 15.82 l-1.34 0 q-0.06 -0.26 -0.09 -0.55 t-0.03 -0.55 q0 -0.54 0.12 -1.06 l4.12 0 l0 10.34 q-0.72 0.12 -1.4 0.12 q-0.66 0 -1.38 -0.12 l0 -8.18 z M79.7384375 11.92 q-0.12 -0.68 -0.12 -1.34 q0 -0.64 0.12 -1.34 q0.34 -0.06 0.73 -0.09 t0.71 -0.03 q0.34 0 0.74 0.03 t0.74 0.09 q0.06 0.34 0.08 0.67 t0.02 0.67 q0 0.32 -0.02 0.66 t-0.08 0.68 q-0.34 0.06 -0.73 0.08 t-0.73 0.02 q-0.32 0 -0.72 -0.02 t-0.74 -0.08 z M85.34270833333333 13.64 q0.28 -0.06 0.55 -0.08 t0.61 -0.02 q0.56 0 1.14 0.12 q0.06 0.1 0.11 0.29 t0.1 0.41 t0.08 0.43 l0.05 0.35 q0.18 -0.32 0.44 -0.63 t0.63 -0.55 t0.83 -0.39 t1.02 -0.15 q0.86 0 1.61 0.32 t1.31 0.97 t0.87 1.63 t0.31 2.32 q0 1.3 -0.38 2.33 t-1.1 1.75 t-1.76 1.11 t-2.36 0.39 q-0.34 0 -0.67 -0.03 t-0.55 -0.07 l0 4.6 q-0.38 0.06 -0.73 0.08 t-0.69 0.02 t-0.69 -0.02 t-0.73 -0.08 l0 -15.1 z M88.18270833333332 21.8 q0.54 0.16 1.24 0.16 q1.24 0 1.9 -0.8 t0.66 -2.42 q0 -0.62 -0.1 -1.15 t-0.34 -0.91 t-0.61 -0.6 t-0.91 -0.22 q-0.5 0 -0.85 0.19 t-0.57 0.52 t-0.32 0.77 t-0.1 0.94 l0 3.52 z"/></g><g id="SvgjsG8559" rel="mainfill" name="symbol" feature="symbol" xmlns:name="symbol_mainfill" fill="#fff" transform="translate(-9.548419451759624, -8.925478879892658) scale(0.11979686142125603)"><g xmlns="http://www.w3.org/2000/svg"><path fill="#fff" d="M396.6,385.8l0.5,66.8l0.6,81.1l2.6,374.9l104-0.3l3.8,0l96.4-0.3l0-131.7   c-61.8-37.6-107.1-84.7-138.5-143.9c-43.2-81.6-57.3-184.7-42-306.3c-6-16.8-8.6-37.1-11.4-58.6c-1.5-11.4-3-23.1-5-34.4   c-76.3,6.6-172.8,16.4-210.5,26c-1.5,0.4-3.1,0.1-4.4-0.7c-0.3-0.2-26.4-17.3-49.5-17.3c-2.7,0-5.3,0.2-7.7,0.7l0,4.9   c0,1.5-0.6,2.9-1.6,3.9c-1,1-2.4,1.6-3.9,1.6l-33.6,0.1c5.4,8.8,20.2,23.2,59.6,23.2c11.1,0,23.5-1.2,36.9-3.5c2-0.3,4,0.4,5.2,2   l55.6,69.5l138.7,37.3C394.9,381.2,396.6,383.4,396.6,385.8z"/><path fill="{{COLOR}}" d="M807.1,269.7c13,2.2,25,3.2,35.8,3.2c40.2,0,55.2-14.7,60.6-23.6l-33.6,0.1c-1.5,0-2.9-0.6-3.9-1.6   c-1-1-1.6-2.4-1.6-3.9l0-4.9c-2.3-0.4-4.7-0.7-7.3-0.7c-23.1,0-49.4,17.5-49.6,17.6c-1.3,0.9-2.9,1.1-4.4,0.8   c-45.6-11.2-178.9-22.3-254.3-27.9c-2.9-0.2-5.1-2.6-5.1-5.5l-0.3-88.6c-0.1-24-19.6-43.5-43.6-43.5l-0.2,0   c-11.7,0-22.7,4.6-30.9,12.9c-8.2,8.3-12.7,19.3-12.7,30.9l0.3,88.6c0,2.9-2.2,5.3-5.1,5.5c-5.9,0.5-12.1,1-18.6,1.5l-7.1,0.6   c-1.9,0.2-4,0.3-6,0.5c7.7,21.1,25.1,55.3,52.7,91.2c36.3,47.2,81.9,86.2,132.2,113.3v-51.3c0-2.5,1.7-4.6,4-5.3l138.4-38.2   l55.1-69.8C803.2,270.1,805.2,269.3,807.1,269.7z"/><path fill="{{COLOR}}" d="M613.1,768.7h9.9l-7.1-313.9l-6.9-3.9c-0.5-0.1-1.1-0.3-1.6-0.5c-54.9-27.9-104.7-69.6-143.9-120.6   c-16.9-21.9-30.1-43.3-39.7-61.7c2.6,20.6,5.3,40,11,55.3c0.2,0.6,0.3,1.3,0.3,1.9c0,0.2,0,0.5,0,0.7   c-15.3,119.9-1.7,221.2,40.6,301.1c30.8,58.2,75.7,104.4,137.1,141.3C612.9,768.5,613,768.6,613.1,768.7z"/></g></g>
            </g>
        </svg>
    